<svg width="66" height="66" viewBox="0 0 66 66" fill="none" xmlns="http://www.w3.org/2000/svg">
<rect width="66" height="66" rx="4" fill="url(#paint0_linear_44_330)"/>
<g clip-path="url(#clip0_44_330)">
<path d="M50.9904 37.3221L47.0529 33.3846C46.9311 33.2627 46.7865 33.166 46.6272 33.1C46.468 33.034 46.2974 33 46.125 33C45.9526 33 45.782 33.034 45.6228 33.1C45.4635 33.166 45.3189 33.2627 45.1971 33.3846L33 45.5815V51.375H38.7935L50.9904 39.178C51.1124 39.0562 51.2091 38.9115 51.2751 38.7523C51.3411 38.5931 51.375 38.4224 51.375 38.25C51.375 38.0777 51.3411 37.907 51.2751 37.7478C51.2091 37.5886 51.1124 37.4439 50.9904 37.3221ZM37.7065 48.75H35.625V46.6686L42.1875 40.1061L44.269 42.1875L37.7065 48.75ZM46.125 40.3315L44.0435 38.25L46.125 36.1686L48.2065 38.25L46.125 40.3315Z" fill="white"/>
<path d="M35.625 30.375V35.625H38.25V30.375H35.625Z" fill="white"/>
<path d="M30.375 27.75V35.625H33V27.75H30.375Z" fill="white"/>
<path d="M25.125 22.5V35.625H27.75V22.5H25.125Z" fill="white"/>
<path d="M27.75 51.375H19.875C19.179 51.3743 18.5118 51.0975 18.0197 50.6054C17.5275 50.1132 17.2507 49.446 17.25 48.75V17.25C17.2507 16.554 17.5275 15.8868 18.0197 15.3947C18.5118 14.9025 19.179 14.6257 19.875 14.625H40.875C41.571 14.6257 42.2382 14.9025 42.7303 15.3947C43.2225 15.8868 43.4993 16.554 43.5 17.25V30.375H40.875V17.25H19.875V48.75H27.75V51.375Z" fill="white"/>
</g>
<defs>
<linearGradient id="paint0_linear_44_330" x1="2.53846" y1="13.0625" x2="73.5693" y2="19.1785" gradientUnits="userSpaceOnUse">
<stop stop-color="#0166A0"/>
<stop offset="1" stop-color="#33B4FF"/>
</linearGradient>
<clipPath id="clip0_44_330">
<rect width="42" height="42" fill="white" transform="translate(12 12)"/>
</clipPath>
</defs>
</svg>
