<svg width="66" height="66" viewBox="0 0 66 66" fill="none" xmlns="http://www.w3.org/2000/svg">
<rect width="66" height="66" rx="4" fill="url(#paint0_linear_44_290)"/>
<path d="M29.5 34.75C29.1539 34.75 28.8155 34.8526 28.5278 35.0449C28.24 35.2372 28.0157 35.5105 27.8832 35.8303C27.7508 36.1501 27.7161 36.5019 27.7836 36.8414C27.8511 37.1809 28.0178 37.4927 28.2626 37.7374C28.5073 37.9822 28.8191 38.1488 29.1586 38.2164C29.4981 38.2839 29.8499 38.2492 30.1697 38.1168C30.4895 37.9843 30.7628 37.76 30.9551 37.4722C31.1474 37.1845 31.25 36.8461 31.25 36.5C31.25 36.0359 31.0656 35.5908 30.7374 35.2626C30.4092 34.9344 29.9641 34.75 29.5 34.75ZM29.5 27.75C29.1539 27.75 28.8155 27.8526 28.5278 28.0449C28.24 28.2372 28.0157 28.5105 27.8832 28.8303C27.7508 29.1501 27.7161 29.5019 27.7836 29.8414C27.8511 30.1809 28.0178 30.4927 28.2626 30.7374C28.5073 30.9822 28.8191 31.1489 29.1586 31.2164C29.4981 31.2839 29.8499 31.2492 30.1697 31.1168C30.4895 30.9843 30.7628 30.76 30.9551 30.4722C31.1474 30.1845 31.25 29.8461 31.25 29.5C31.25 29.0359 31.0656 28.5908 30.7374 28.2626C30.4092 27.9344 29.9641 27.75 29.5 27.75ZM36.5 27.75C36.1539 27.75 35.8155 27.8526 35.5278 28.0449C35.24 28.2372 35.0157 28.5105 34.8832 28.8303C34.7508 29.1501 34.7161 29.5019 34.7836 29.8414C34.8512 30.1809 35.0178 30.4927 35.2626 30.7374C35.5073 30.9822 35.8191 31.1489 36.1586 31.2164C36.4981 31.2839 36.8499 31.2492 37.1697 31.1168C37.4895 30.9843 37.7628 30.76 37.9551 30.4722C38.1474 30.1845 38.25 29.8461 38.25 29.5C38.25 29.0359 38.0656 28.5908 37.7374 28.2626C37.4092 27.9344 36.9641 27.75 36.5 27.75ZM48.75 34.75C49.2141 34.75 49.6592 34.5656 49.9874 34.2374C50.3156 33.9092 50.5 33.4641 50.5 33C50.5 32.5359 50.3156 32.0908 49.9874 31.7626C49.6592 31.4344 49.2141 31.25 48.75 31.25H45.25V27.75H48.75C49.2141 27.75 49.6592 27.5656 49.9874 27.2374C50.3156 26.9092 50.5 26.4641 50.5 26C50.5 25.5359 50.3156 25.0908 49.9874 24.7626C49.6592 24.4344 49.2141 24.25 48.75 24.25H44.935C44.6737 23.5161 44.2523 22.8495 43.7014 22.2986C43.1505 21.7477 42.4839 21.3263 41.75 21.065V17.25C41.75 16.7859 41.5656 16.3408 41.2374 16.0126C40.9093 15.6844 40.4641 15.5 40 15.5C39.5359 15.5 39.0908 15.6844 38.7626 16.0126C38.4344 16.3408 38.25 16.7859 38.25 17.25V20.75H34.75V17.25C34.75 16.7859 34.5656 16.3408 34.2374 16.0126C33.9092 15.6844 33.4641 15.5 33 15.5C32.5359 15.5 32.0908 15.6844 31.7626 16.0126C31.4344 16.3408 31.25 16.7859 31.25 17.25V20.75H27.75V17.25C27.75 16.7859 27.5656 16.3408 27.2374 16.0126C26.9092 15.6844 26.4641 15.5 26 15.5C25.5359 15.5 25.0908 15.6844 24.7626 16.0126C24.4344 16.3408 24.25 16.7859 24.25 17.25V21.065C23.5161 21.3263 22.8495 21.7477 22.2986 22.2986C21.7477 22.8495 21.3263 23.5161 21.065 24.25H17.25C16.7859 24.25 16.3408 24.4344 16.0126 24.7626C15.6844 25.0908 15.5 25.5359 15.5 26C15.5 26.4641 15.6844 26.9092 16.0126 27.2374C16.3408 27.5656 16.7859 27.75 17.25 27.75H20.75V31.25H17.25C16.7859 31.25 16.3408 31.4344 16.0126 31.7626C15.6844 32.0908 15.5 32.5359 15.5 33C15.5 33.4641 15.6844 33.9092 16.0126 34.2374C16.3408 34.5656 16.7859 34.75 17.25 34.75H20.75V38.25H17.25C16.7859 38.25 16.3408 38.4344 16.0126 38.7626C15.6844 39.0908 15.5 39.5359 15.5 40C15.5 40.4641 15.6844 40.9093 16.0126 41.2374C16.3408 41.5656 16.7859 41.75 17.25 41.75H21.065C21.3263 42.4839 21.7477 43.1505 22.2986 43.7014C22.8495 44.2523 23.5161 44.6737 24.25 44.935V48.75C24.25 49.2141 24.4344 49.6592 24.7626 49.9874C25.0908 50.3156 25.5359 50.5 26 50.5C26.4641 50.5 26.9092 50.3156 27.2374 49.9874C27.5656 49.6592 27.75 49.2141 27.75 48.75V45.25H31.25V48.75C31.25 49.2141 31.4344 49.6592 31.7626 49.9874C32.0908 50.3156 32.5359 50.5 33 50.5C33.4641 50.5 33.9092 50.3156 34.2374 49.9874C34.5656 49.6592 34.75 49.2141 34.75 48.75V45.25H38.25V48.75C38.25 49.2141 38.4344 49.6592 38.7626 49.9874C39.0908 50.3156 39.5359 50.5 40 50.5C40.4641 50.5 40.9093 50.3156 41.2374 49.9874C41.5656 49.6592 41.75 49.2141 41.75 48.75V44.935C42.4839 44.6737 43.1505 44.2523 43.7014 43.7014C44.2523 43.1505 44.6737 42.4839 44.935 41.75H48.75C49.2141 41.75 49.6592 41.5656 49.9874 41.2374C50.3156 40.9093 50.5 40.4641 50.5 40C50.5 39.5359 50.3156 39.0908 49.9874 38.7626C49.6592 38.4344 49.2141 38.25 48.75 38.25H45.25V34.75H48.75ZM41.75 40C41.75 40.4641 41.5656 40.9093 41.2374 41.2374C40.9093 41.5656 40.4641 41.75 40 41.75H26C25.5359 41.75 25.0908 41.5656 24.7626 41.2374C24.4344 40.9093 24.25 40.4641 24.25 40V26C24.25 25.5359 24.4344 25.0908 24.7626 24.7626C25.0908 24.4344 25.5359 24.25 26 24.25H40C40.4641 24.25 40.9093 24.4344 41.2374 24.7626C41.5656 25.0908 41.75 25.5359 41.75 26V40ZM36.5 34.75C36.1539 34.75 35.8155 34.8526 35.5278 35.0449C35.24 35.2372 35.0157 35.5105 34.8832 35.8303C34.7508 36.1501 34.7161 36.5019 34.7836 36.8414C34.8512 37.1809 35.0178 37.4927 35.2626 37.7374C35.5073 37.9822 35.8191 38.1488 36.1586 38.2164C36.4981 38.2839 36.8499 38.2492 37.1697 38.1168C37.4895 37.9843 37.7628 37.76 37.9551 37.4722C38.1474 37.1845 38.25 36.8461 38.25 36.5C38.25 36.0359 38.0656 35.5908 37.7374 35.2626C37.4092 34.9344 36.9641 34.75 36.5 34.75Z" fill="white"/>
<defs>
<linearGradient id="paint0_linear_44_290" x1="2.53846" y1="13.0625" x2="73.5693" y2="19.1785" gradientUnits="userSpaceOnUse">
<stop stop-color="#0166A0"/>
<stop offset="1" stop-color="#33B4FF"/>
</linearGradient>
</defs>
</svg>
