<svg width="66" height="66" viewBox="0 0 66 66" fill="none" xmlns="http://www.w3.org/2000/svg">
<rect width="66" height="66" rx="4" fill="url(#paint0_linear_44_321)"/>
<path d="M31.6875 15.9375C23.7528 15.9375 17.25 22.4403 17.25 30.375C17.25 33.2141 18.3541 35.5933 19.3418 37.7168C20.3295 39.8403 21.1875 41.7012 21.1875 43.623V50.0625H23.8125V43.623C23.8125 40.9512 22.7018 38.7187 21.7207 36.6094C20.7396 34.5 19.875 32.5234 19.875 30.375C19.875 23.8722 25.1847 18.5625 31.6875 18.5625C36.6846 18.5625 39.3844 20.6747 40.998 22.7871C42.6117 24.8996 43.0078 26.9707 43.0078 26.9707L43.0488 27.1348L43.1309 27.2988L46.6172 34.3125C46.7135 34.5371 46.7046 34.714 46.6992 34.7637H46.6582H46.6172C45.9127 34.9985 44.4844 35.4199 44.4844 35.4199L43.5 35.666V36.6914V39.5625C43.5 40.4375 43.0067 41.4504 42.2285 42.2285C41.4504 43.0067 40.4375 43.5 39.5625 43.5H38.25H36.9375V44.8125V50.0625H39.5625V46.125C41.3125 46.125 42.9246 45.3058 44.1152 44.1152C45.3058 42.9246 46.125 41.3125 46.125 39.5625V37.6348C46.5724 37.5086 46.8706 37.4635 47.3555 37.3066C47.3974 37.2961 47.4373 37.2783 47.4785 37.2656V37.2246C48.3238 36.9559 49.0308 36.2569 49.2422 35.502C49.4655 34.7043 49.3261 33.9614 49.0371 33.2871V33.2461L48.9961 33.2051L45.5098 26.1914L45.4688 26.1094C45.3661 25.6496 44.842 23.535 43.0488 21.1875C41.0531 18.575 37.4529 15.9375 31.6875 15.9375ZM28.8984 22.9102L26.6016 24.2227L27.668 26.0684C26.8223 26.8582 26.2163 27.9025 25.9453 29.0625H23.8125V31.6875H25.9453C26.2135 32.8544 26.8192 33.8889 27.668 34.6816L26.6016 36.5273L28.8984 37.8398L29.9648 35.9941C30.5131 36.1637 31.0857 36.2812 31.6875 36.2812C32.2893 36.2812 32.8619 36.1637 33.4102 35.9941L34.4766 37.8398L36.7734 36.5273L35.707 34.6816C36.5558 33.8889 37.1615 32.8544 37.4297 31.6875H39.5625V29.0625H37.4297C37.1615 27.8956 36.5558 26.8611 35.707 26.0684L36.7734 24.2227L34.4766 22.9102L33.4102 24.7559C32.8619 24.5863 32.2893 24.4688 31.6875 24.4688C31.0857 24.4688 30.5131 24.5863 29.9648 24.7559L28.8984 22.9102ZM31.6875 27.0938C33.5152 27.0938 34.9688 28.5473 34.9688 30.375C34.9688 32.2027 33.5152 33.6562 31.6875 33.6562C29.8598 33.6562 28.4062 32.2027 28.4062 30.375C28.4062 28.5473 29.8598 27.0938 31.6875 27.0938Z" fill="white"/>
<defs>
<linearGradient id="paint0_linear_44_321" x1="2.53846" y1="13.0625" x2="73.5693" y2="19.1785" gradientUnits="userSpaceOnUse">
<stop stop-color="#0166A0"/>
<stop offset="1" stop-color="#33B4FF"/>
</linearGradient>
</defs>
</svg>
