<svg width="66" height="66" viewBox="0 0 66 66" fill="none" xmlns="http://www.w3.org/2000/svg">
<rect width="66" height="66" rx="4" fill="url(#paint0_linear_44_298)"/>
<g clip-path="url(#clip0_44_298)">
<path d="M51.375 36.9375H46.125V31.6875H43.5V43.5H22.5V22.5L34.3125 22.4988V19.875H29.0625V14.625H26.4375V19.875H22.5C21.804 19.8757 21.1367 20.1525 20.6446 20.6446C20.1525 21.1367 19.8757 21.804 19.875 22.5V26.4375H14.625V29.0625H19.875V36.9375H14.625V39.5625H19.875V43.5C19.8758 44.1959 20.1526 44.8632 20.6447 45.3553C21.1368 45.8474 21.8041 46.1242 22.5 46.125H26.4375V51.375H29.0625V46.125H36.9375V51.375H39.5625V46.125H43.5C44.1959 46.1241 44.863 45.8472 45.3551 45.3551C45.8472 44.863 46.1241 44.1959 46.125 43.5V39.5625H51.375V36.9375Z" fill="white"/>
<path d="M46.125 14.625C44.7331 14.6265 43.3986 15.1801 42.4143 16.1643C41.43 17.1486 40.8765 18.4831 40.875 19.875C40.88 20.8092 41.137 21.7248 41.6189 22.5252L37.7065 26.4375H26.4375V39.5625H39.5625V28.2935L43.4748 24.3812C44.2752 24.8631 45.1908 25.1201 46.125 25.125C47.5174 25.125 48.8527 24.5719 49.8373 23.5873C50.8219 22.6027 51.375 21.2674 51.375 19.875C51.375 18.4826 50.8219 17.1473 49.8373 16.1627C48.8527 15.1781 47.5174 14.625 46.125 14.625ZM36.9375 36.9375H29.0625V29.0625H36.9375V36.9375ZM46.125 22.5C45.6058 22.5 45.0983 22.346 44.6666 22.0576C44.2349 21.7692 43.8985 21.3592 43.6998 20.8795C43.5011 20.3999 43.4492 19.8721 43.5504 19.3629C43.6517 18.8537 43.9017 18.386 44.2688 18.0188C44.636 17.6517 45.1037 17.4017 45.6129 17.3004C46.1221 17.1992 46.6499 17.2511 47.1295 17.4498C47.6092 17.6485 48.0192 17.9849 48.3076 18.4166C48.596 18.8483 48.75 19.3558 48.75 19.875C48.7492 20.5709 48.4724 21.2382 47.9803 21.7303C47.4882 22.2224 46.8209 22.4992 46.125 22.5Z" fill="white"/>
</g>
<defs>
<linearGradient id="paint0_linear_44_298" x1="2.53846" y1="13.0625" x2="73.5693" y2="19.1785" gradientUnits="userSpaceOnUse">
<stop stop-color="#0166A0"/>
<stop offset="1" stop-color="#33B4FF"/>
</linearGradient>
<clipPath id="clip0_44_298">
<rect width="42" height="42" fill="white" transform="translate(12 12)"/>
</clipPath>
</defs>
</svg>
