<svg width="66" height="66" viewBox="0 0 66 66" fill="none" xmlns="http://www.w3.org/2000/svg">
<rect width="66" height="66" rx="4" fill="url(#paint0_linear_44_311)"/>
<path d="M26 37.795V50.5L33 47L40 50.5V37.795C43.171 35.5812 45.25 31.9106 45.25 27.75C45.25 20.9845 39.7655 15.5 33 15.5C26.2345 15.5 20.75 20.9845 20.75 27.75C20.75 31.9106 22.829 35.5812 26 37.795ZM33 19C37.8247 19 41.75 22.9253 41.75 27.75C41.75 32.5747 37.8247 36.5 33 36.5C28.1753 36.5 24.25 32.5747 24.25 27.75C24.25 22.9253 28.1753 19 33 19ZM36.5 44.837L34.5654 43.8701L33 43.087L31.4346 43.8693L29.5 44.837V39.4864C30.6095 39.8162 31.7829 40 33 40C34.2171 40 35.3905 39.8162 36.5 39.4864V44.837Z" fill="white"/>
<path d="M33 33C35.8997 33 38.25 30.6497 38.25 27.75C38.25 24.8503 35.8997 22.5 33 22.5C30.1003 22.5 27.75 24.8503 27.75 27.75C27.75 30.6497 30.1003 33 33 33ZM33 26C33.9651 26 34.75 26.7849 34.75 27.75C34.75 28.7151 33.9651 29.5 33 29.5C32.0349 29.5 31.25 28.7151 31.25 27.75C31.25 26.7849 32.0349 26 33 26Z" fill="white"/>
<defs>
<linearGradient id="paint0_linear_44_311" x1="2.53846" y1="13.0625" x2="73.5693" y2="19.1785" gradientUnits="userSpaceOnUse">
<stop stop-color="#0166A0"/>
<stop offset="1" stop-color="#33B4FF"/>
</linearGradient>
</defs>
</svg>
