<svg width="66" height="66" viewBox="0 0 66 66" fill="none" xmlns="http://www.w3.org/2000/svg">
<rect width="66" height="66" rx="4" fill="url(#paint0_linear_44_283)"/>
<path d="M32.125 47.875C31.3083 47.8167 30.5792 47.1458 29.9375 45.8625C29.2958 44.5792 28.7708 42.8583 28.3625 40.7C29.5875 40.8167 30.8417 40.875 32.125 40.875C33.4083 40.875 34.6625 40.8167 35.8875 40.7C35.4792 42.8583 34.9542 44.5792 34.3125 45.8625C33.6708 47.1458 32.9417 47.8167 32.125 47.875ZM13.75 33C13.8667 38.3083 15.6458 42.6542 19.0875 46.0375C22.4708 49.4792 26.8167 51.2583 32.125 51.375C37.4333 51.2583 41.7792 49.4792 45.1625 46.0375C48.6042 42.6542 50.3833 38.3083 50.5 33C50.3833 27.6917 48.6042 23.3458 45.1625 19.9625C41.7792 16.5208 37.4333 14.7417 32.125 14.625C26.8167 14.7417 22.4708 16.5208 19.0875 19.9625C15.6458 23.3458 13.8667 27.6917 13.75 33ZM17.25 33C17.3083 32.1833 17.9792 31.4542 19.2625 30.8125C20.5458 30.1708 22.2667 29.6458 24.425 29.2375C24.3083 30.4625 24.25 31.7167 24.25 33C24.25 34.2833 24.3083 35.5375 24.425 36.7625C22.2667 36.3542 20.5458 35.8292 19.2625 35.1875C17.9792 34.5458 17.3083 33.8167 17.25 33ZM17.95 37.6375C19.8167 38.8042 22.15 39.65 24.95 40.175C25.475 42.975 26.3208 45.3083 27.4875 47.175C25.2125 46.4167 23.2292 45.2208 21.5375 43.5875C19.9042 41.8958 18.7083 39.9125 17.95 37.6375ZM17.95 28.3625C18.7083 26.0875 19.9042 24.1042 21.5375 22.4125C23.2292 20.7792 25.2125 19.5833 27.4875 18.825C26.3208 20.6917 25.475 23.025 24.95 25.825C22.15 26.35 19.8167 27.1958 17.95 28.3625ZM27.75 33C27.75 31.4833 27.8083 30.0833 27.925 28.8C29.2667 28.6833 30.6667 28.625 32.125 28.625C33.6417 28.625 35.0417 28.6833 36.325 28.8C36.4417 30.0833 36.5 31.4833 36.5 33C36.5 34.4583 36.4417 35.8583 36.325 37.2C35.0417 37.3167 33.6417 37.375 32.125 37.375C30.6667 37.375 29.2667 37.3167 27.925 37.2C27.8083 35.8583 27.75 34.4583 27.75 33ZM28.3625 25.3C28.7708 23.1417 29.2958 21.4208 29.9375 20.1375C30.5792 18.8542 31.3083 18.1833 32.125 18.125C32.9417 18.1833 33.6708 18.8542 34.3125 20.1375C34.9542 21.4208 35.4792 23.1417 35.8875 25.3C34.6625 25.1833 33.4083 25.125 32.125 25.125C30.8417 25.125 29.5875 25.1833 28.3625 25.3ZM36.7625 47.175C37.9292 45.3083 38.775 42.975 39.3 40.175C42.1 39.65 44.4333 38.8042 46.3 37.6375C45.5417 39.9125 44.3458 41.8958 42.7125 43.5875C41.0208 45.2208 39.0375 46.4167 36.7625 47.175ZM36.7625 18.825C39.0375 19.5833 41.0208 20.7792 42.7125 22.4125C44.3458 24.1042 45.5417 26.0875 46.3 28.3625C44.4333 27.1958 42.1 26.35 39.3 25.825C38.775 23.025 37.9292 20.6917 36.7625 18.825ZM39.825 36.7625C39.9417 35.5375 40 34.2833 40 33C40 31.7167 39.9417 30.4625 39.825 29.2375C41.9833 29.6458 43.7042 30.1708 44.9875 30.8125C46.2708 31.4542 46.9417 32.1833 47 33C46.9417 33.8167 46.2708 34.5458 44.9875 35.1875C43.7042 35.8292 41.9833 36.3542 39.825 36.7625Z" fill="white"/>
<defs>
<linearGradient id="paint0_linear_44_283" x1="2.53846" y1="13.0625" x2="73.5693" y2="19.1785" gradientUnits="userSpaceOnUse">
<stop stop-color="#0166A0"/>
<stop offset="1" stop-color="#33B4FF"/>
</linearGradient>
</defs>
</svg>
