<svg width="123" height="126" viewBox="0 0 123 126" fill="none" xmlns="http://www.w3.org/2000/svg">
<g filter="url(#filter0_d_16_182)">
<rect x="17" width="75" height="75" rx="12" fill="white"/>
</g>
<g clip-path="url(#clip0_16_182)">
<path d="M75.125 42.3125H69.375V36.5625H66.5V49.5H43.5V26.5L56.4375 26.4987V23.625H50.6875V17.875H47.8125V23.625H43.5C42.7377 23.6258 42.0069 23.9289 41.4679 24.4679C40.9289 25.0069 40.6258 25.7377 40.625 26.5V30.8125H34.875V33.6875H40.625V42.3125H34.875V45.1875H40.625V49.5C40.6259 50.2622 40.9291 50.993 41.468 51.532C42.007 52.0709 42.7378 52.3741 43.5 52.375H47.8125V58.125H50.6875V52.375H59.3125V58.125H62.1875V52.375H66.5C67.2622 52.374 67.9929 52.0707 68.5318 51.5318C69.0707 50.9929 69.374 50.2622 69.375 49.5V45.1875H75.125V42.3125Z" fill="url(#paint0_linear_16_182)"/>
<path d="M69.375 17.875C67.8505 17.8766 66.3889 18.4829 65.3109 19.5609C64.2329 20.6389 63.6266 22.1005 63.625 23.625C63.6305 24.6482 63.912 25.651 64.4398 26.5276L60.1547 30.8125H47.8125V45.1875H62.1875V32.8453L66.4724 28.5604C67.349 29.0881 68.3518 29.3696 69.375 29.375C70.9 29.375 72.3625 28.7692 73.4409 27.6909C74.5192 26.6125 75.125 25.15 75.125 23.625C75.125 22.1 74.5192 20.6375 73.4409 19.5591C72.3625 18.4808 70.9 17.875 69.375 17.875ZM59.3125 42.3125H50.6875V33.6875H59.3125V42.3125ZM69.375 26.5C68.8064 26.5 68.2505 26.3314 67.7777 26.0155C67.3049 25.6996 66.9364 25.2506 66.7188 24.7252C66.5012 24.1999 66.4443 23.6218 66.5552 23.0641C66.6662 22.5064 66.94 21.9941 67.3421 21.5921C67.7441 21.19 68.2564 20.9162 68.8141 20.8052C69.3718 20.6943 69.9499 20.7512 70.4752 20.9688C71.0006 21.1864 71.4496 21.5549 71.7655 22.0277C72.0814 22.5005 72.25 23.0564 72.25 23.625C72.2491 24.3872 71.9459 25.118 71.407 25.657C70.868 26.1959 70.1372 26.4991 69.375 26.5Z" fill="url(#paint1_linear_16_182)"/>
</g>
<defs>
<filter id="filter0_d_16_182" x="0" y="0" width="123" height="126" filterUnits="userSpaceOnUse" color-interpolation-filters="sRGB">
<feFlood flood-opacity="0" result="BackgroundImageFix"/>
<feColorMatrix in="SourceAlpha" type="matrix" values="0 0 0 0 0 0 0 0 0 0 0 0 0 0 0 0 0 0 127 0" result="hardAlpha"/>
<feOffset dx="7" dy="27"/>
<feGaussianBlur stdDeviation="12"/>
<feComposite in2="hardAlpha" operator="out"/>
<feColorMatrix type="matrix" values="0 0 0 0 0 0 0 0 0 0 0 0 0 0 0 0 0 0 0.08 0"/>
<feBlend mode="normal" in2="BackgroundImageFix" result="effect1_dropShadow_16_182"/>
<feBlend mode="normal" in="SourceGraphic" in2="effect1_dropShadow_16_182" result="shape"/>
</filter>
<linearGradient id="paint0_linear_16_182" x1="36.4231" y1="25.8411" x2="79.7411" y2="29.571" gradientUnits="userSpaceOnUse">
<stop stop-color="#0166A0"/>
<stop offset="1" stop-color="#33B4FF"/>
</linearGradient>
<linearGradient id="paint1_linear_16_182" x1="48.863" y1="23.2806" x2="78.2574" y2="25.8116" gradientUnits="userSpaceOnUse">
<stop stop-color="#0166A0"/>
<stop offset="1" stop-color="#33B4FF"/>
</linearGradient>
<clipPath id="clip0_16_182">
<rect width="46" height="46" fill="white" transform="translate(32 15)"/>
</clipPath>
</defs>
</svg>
