<svg width="133" height="25" viewBox="0 0 133 25" fill="none" xmlns="http://www.w3.org/2000/svg">
<path d="M0.309422 0.23071H5.05678V24H0.309422V0.23071ZM6.20957 0.263226H10.9894V14.5378C11.0328 14.863 11.0653 15.1014 11.087 15.2532C11.3038 16.272 11.6831 17.1391 12.2251 17.8545C12.8971 18.7432 13.6883 19.1876 14.5987 19.1876C15.4225 19.1876 16.1595 18.8083 16.8098 18.0495C17.3518 17.4426 17.742 16.6839 17.9804 15.7734C18.0671 15.6 18.1105 15.3941 18.1105 15.1556C18.1322 15.0689 18.1647 14.9063 18.208 14.6679V0.23071H23.0204V14.4728C23.0204 14.5378 23.0638 14.7979 23.1505 15.2532C23.3456 16.2503 23.7249 17.1174 24.2885 17.8545C24.9605 18.7432 25.7409 19.1876 26.6297 19.1876C27.5618 19.1876 28.3639 18.7324 29.0359 17.8219C29.6212 17.0415 30.0005 16.1528 30.174 15.1556C30.239 14.7654 30.2715 14.4511 30.2715 14.2126V0.263226H35.0514V14.4403C35.0514 14.7004 35.008 15.1448 34.9213 15.7734C34.6178 17.9845 33.7291 19.8705 32.255 21.4312C30.6509 23.1221 28.7758 23.9675 26.6297 23.9675C24.2018 23.9675 22.2075 22.9812 20.6467 21.0085H20.6142C18.88 22.9812 16.8749 23.9675 14.5987 23.9675C12.6478 23.9675 10.9244 23.2738 9.42867 21.8865C8.06299 20.6075 7.10919 18.9708 6.56725 16.9765C6.48054 16.6297 6.40467 16.272 6.33964 15.9035C6.25293 15.3399 6.20957 14.9497 6.20957 14.7329V0.263226ZM36.4455 0.23071H41.1929V24H36.4455V0.23071ZM42.3457 18.2446L55.6448 5.07561H42.3457V0.295741L61.4977 0.328257C61.4977 0.349934 61.5085 0.38245 61.5302 0.425806V5.98606L48.1661 19.1876V19.2201H61.5302V24H42.3457V18.2446ZM75.5604 19.2201H78.6819C78.7036 19.2201 78.9312 19.1659 79.3648 19.0575C80.2969 18.689 80.9906 17.8003 81.4458 16.3912C81.5542 16.0661 81.6734 15.6325 81.8035 15.0906L82.909 7.96955C82.9524 7.64439 83.115 7.01574 83.3968 6.08361C84.2639 3.17884 85.8897 1.40129 88.2742 0.750967C89.1413 0.512516 89.8241 0.39329 90.3227 0.39329H93.8019V5.17316H90.7779C90.5612 5.19484 90.4636 5.20568 90.4853 5.20568C89.3147 5.48748 88.5018 6.28955 88.0466 7.61187C87.9382 7.91535 87.8298 8.22968 87.7214 8.55484L86.3882 16.6839C86.2799 17.0741 86.139 17.6052 85.9655 18.2772C85.0334 21.5071 83.1258 23.3714 80.2427 23.8699C79.6141 23.9783 78.0533 24.0325 75.5604 24.0325V19.2201ZM94.9303 12.0015C94.9303 8.72826 96.0901 5.95355 98.4096 3.67742C100.751 1.37961 103.558 0.23071 106.831 0.23071C110.105 0.23071 112.879 1.40129 115.155 3.74245C117.431 6.06193 118.57 8.85832 118.57 12.1316C118.57 15.3615 117.399 18.1363 115.058 20.4557C112.738 22.7535 109.964 23.9025 106.734 23.9025C103.46 23.9025 100.675 22.7427 98.377 20.4232C96.0792 18.1037 94.9303 15.2965 94.9303 12.0015ZM99.7102 12.0341C99.7102 13.985 100.393 15.6542 101.759 17.0415C103.124 18.4072 104.783 19.0901 106.734 19.0901C108.685 19.0901 110.343 18.4072 111.709 17.0415C113.096 15.6542 113.79 13.985 113.79 12.0341C113.79 10.1048 113.096 8.45729 111.709 7.09161C110.321 5.70426 108.663 5.01058 106.734 5.01058C104.804 5.01058 103.146 5.70426 101.759 7.09161C100.393 8.45729 99.7102 10.1048 99.7102 12.0341ZM119.698 0.23071H124.511V16.9765C124.533 17.215 124.565 17.3992 124.608 17.5293C124.912 18.5915 125.692 19.1226 126.95 19.1226H132.38V23.9025H126.624C125.909 23.9025 125.14 23.7615 124.316 23.4797C122.863 22.9812 121.714 22.0707 120.869 20.7484C120.089 19.5128 119.698 18.1037 119.698 16.5213V0.23071Z" fill="url(#paint0_linear_16_142)"/>
<defs>
<linearGradient id="paint0_linear_16_142" x1="55" y1="-19" x2="94" y2="54.5" gradientUnits="userSpaceOnUse">
<stop stop-color="#0166A0"/>
<stop offset="1" stop-color="#30AFF9"/>
</linearGradient>
</defs>
</svg>
