<svg width="123" height="126" viewBox="0 0 123 126" fill="none" xmlns="http://www.w3.org/2000/svg">
<g filter="url(#filter0_d_16_181)">
<rect x="17" width="75" height="75" rx="12" fill="white"/>
</g>
<path d="M51.1667 39.9166C50.7876 39.9166 50.4171 40.029 50.1019 40.2396C49.7867 40.4502 49.541 40.7495 49.3959 41.0998C49.2509 41.45 49.2129 41.8354 49.2869 42.2072C49.3608 42.579 49.5434 42.9205 49.8114 43.1885C50.0795 43.4566 50.421 43.6391 50.7928 43.7131C51.1646 43.787 51.55 43.7491 51.9002 43.604C52.2504 43.459 52.5498 43.2133 52.7604 42.8981C52.971 42.5829 53.0834 42.2123 53.0834 41.8333C53.0834 41.3249 52.8814 40.8374 52.522 40.478C52.1626 40.1185 51.675 39.9166 51.1667 39.9166ZM51.1667 32.2499C50.7876 32.2499 50.4171 32.3623 50.1019 32.5729C49.7867 32.7835 49.541 33.0829 49.3959 33.4331C49.2509 33.7833 49.2129 34.1687 49.2869 34.5405C49.3608 34.9123 49.5434 35.2538 49.8114 35.5219C50.0795 35.7899 50.421 35.9725 50.7928 36.0464C51.1646 36.1204 51.55 36.0824 51.9002 35.9374C52.2504 35.7923 52.5498 35.5466 52.7604 35.2314C52.971 34.9162 53.0834 34.5457 53.0834 34.1666C53.0834 33.6583 52.8814 33.1707 52.522 32.8113C52.1626 32.4519 51.675 32.2499 51.1667 32.2499ZM58.8334 32.2499C58.4543 32.2499 58.0837 32.3623 57.7685 32.5729C57.4533 32.7835 57.2077 33.0829 57.0626 33.4331C56.9175 33.7833 56.8796 34.1687 56.9535 34.5405C57.0275 34.9123 57.21 35.2538 57.4781 35.5219C57.7461 35.7899 58.0877 35.9725 58.4595 36.0464C58.8312 36.1204 59.2166 36.0824 59.5669 35.9374C59.9171 35.7923 60.2164 35.5466 60.427 35.2314C60.6376 34.9162 60.75 34.5457 60.75 34.1666C60.75 33.6583 60.5481 33.1707 60.1887 32.8113C59.8292 32.4519 59.3417 32.2499 58.8334 32.2499ZM72.25 39.9166C72.7584 39.9166 73.2459 39.7147 73.6053 39.3552C73.9648 38.9958 74.1667 38.5083 74.1667 37.9999C74.1667 37.4916 73.9648 37.0041 73.6053 36.6446C73.2459 36.2852 72.7584 36.0833 72.25 36.0833H68.4167V32.2499H72.25C72.7584 32.2499 73.2459 32.048 73.6053 31.6885C73.9648 31.3291 74.1667 30.8416 74.1667 30.3333C74.1667 29.8249 73.9648 29.3374 73.6053 28.978C73.2459 28.6185 72.7584 28.4166 72.25 28.4166H68.0717C67.7855 27.6127 67.324 26.8827 66.7207 26.2793C66.1173 25.676 65.3872 25.2144 64.5834 24.9283V20.7499C64.5834 20.2416 64.3814 19.7541 64.022 19.3946C63.6626 19.0352 63.175 18.8333 62.6667 18.8333C62.1584 18.8333 61.6709 19.0352 61.3114 19.3946C60.952 19.7541 60.75 20.2416 60.75 20.7499V24.5833H56.9167V20.7499C56.9167 20.2416 56.7148 19.7541 56.3553 19.3946C55.9959 19.0352 55.5084 18.8333 55 18.8333C54.4917 18.8333 54.0042 19.0352 53.6448 19.3946C53.2853 19.7541 53.0834 20.2416 53.0834 20.7499V24.5833H49.25V20.7499C49.25 20.2416 49.0481 19.7541 48.6887 19.3946C48.3292 19.0352 47.8417 18.8333 47.3334 18.8333C46.825 18.8333 46.3375 19.0352 45.9781 19.3946C45.6186 19.7541 45.4167 20.2416 45.4167 20.7499V24.9283C44.6129 25.2144 43.8828 25.676 43.2794 26.2793C42.6761 26.8827 42.2146 27.6127 41.9284 28.4166H37.75C37.2417 28.4166 36.7542 28.6185 36.3948 28.978C36.0353 29.3374 35.8334 29.8249 35.8334 30.3333C35.8334 30.8416 36.0353 31.3291 36.3948 31.6885C36.7542 32.048 37.2417 32.2499 37.75 32.2499H41.5834V36.0833H37.75C37.2417 36.0833 36.7542 36.2852 36.3948 36.6446C36.0353 37.0041 35.8334 37.4916 35.8334 37.9999C35.8334 38.5083 36.0353 38.9958 36.3948 39.3552C36.7542 39.7147 37.2417 39.9166 37.75 39.9166H41.5834V43.7499H37.75C37.2417 43.7499 36.7542 43.9519 36.3948 44.3113C36.0353 44.6707 35.8334 45.1583 35.8334 45.6666C35.8334 46.1749 36.0353 46.6624 36.3948 47.0219C36.7542 47.3813 37.2417 47.5833 37.75 47.5833H41.9284C42.2146 48.3871 42.6761 49.1172 43.2794 49.7205C43.8828 50.3239 44.6129 50.7854 45.4167 51.0716V55.2499C45.4167 55.7583 45.6186 56.2458 45.9781 56.6052C46.3375 56.9647 46.825 57.1666 47.3334 57.1666C47.8417 57.1666 48.3292 56.9647 48.6887 56.6052C49.0481 56.2458 49.25 55.7583 49.25 55.2499V51.4166H53.0834V55.2499C53.0834 55.7583 53.2853 56.2458 53.6448 56.6052C54.0042 56.9647 54.4917 57.1666 55 57.1666C55.5084 57.1666 55.9959 56.9647 56.3553 56.6052C56.7148 56.2458 56.9167 55.7583 56.9167 55.2499V51.4166H60.75V55.2499C60.75 55.7583 60.952 56.2458 61.3114 56.6052C61.6709 56.9647 62.1584 57.1666 62.6667 57.1666C63.175 57.1666 63.6626 56.9647 64.022 56.6052C64.3814 56.2458 64.5834 55.7583 64.5834 55.2499V51.0716C65.3872 50.7854 66.1173 50.3239 66.7207 49.7205C67.324 49.1172 67.7855 48.3871 68.0717 47.5833H72.25C72.7584 47.5833 73.2459 47.3813 73.6053 47.0219C73.9648 46.6624 74.1667 46.1749 74.1667 45.6666C74.1667 45.1583 73.9648 44.6707 73.6053 44.3113C73.2459 43.9519 72.7584 43.7499 72.25 43.7499H68.4167V39.9166H72.25ZM64.5834 45.6666C64.5834 46.1749 64.3814 46.6624 64.022 47.0219C63.6626 47.3813 63.175 47.5833 62.6667 47.5833H47.3334C46.825 47.5833 46.3375 47.3813 45.9781 47.0219C45.6186 46.6624 45.4167 46.1749 45.4167 45.6666V30.3333C45.4167 29.8249 45.6186 29.3374 45.9781 28.978C46.3375 28.6185 46.825 28.4166 47.3334 28.4166H62.6667C63.175 28.4166 63.6626 28.6185 64.022 28.978C64.3814 29.3374 64.5834 29.8249 64.5834 30.3333V45.6666ZM58.8334 39.9166C58.4543 39.9166 58.0837 40.029 57.7685 40.2396C57.4533 40.4502 57.2077 40.7495 57.0626 41.0998C56.9175 41.45 56.8796 41.8354 56.9535 42.2072C57.0275 42.579 57.21 42.9205 57.4781 43.1885C57.7461 43.4566 58.0877 43.6391 58.4595 43.7131C58.8312 43.787 59.2166 43.7491 59.5669 43.604C59.9171 43.459 60.2164 43.2133 60.427 42.8981C60.6376 42.5829 60.75 42.2123 60.75 41.8333C60.75 41.3249 60.5481 40.8374 60.1887 40.478C59.8292 40.1185 59.3417 39.9166 58.8334 39.9166Z" fill="url(#paint0_linear_16_181)"/>
<defs>
<filter id="filter0_d_16_181" x="0" y="0" width="123" height="126" filterUnits="userSpaceOnUse" color-interpolation-filters="sRGB">
<feFlood flood-opacity="0" result="BackgroundImageFix"/>
<feColorMatrix in="SourceAlpha" type="matrix" values="0 0 0 0 0 0 0 0 0 0 0 0 0 0 0 0 0 0 127 0" result="hardAlpha"/>
<feOffset dx="7" dy="27"/>
<feGaussianBlur stdDeviation="12"/>
<feComposite in2="hardAlpha" operator="out"/>
<feColorMatrix type="matrix" values="0 0 0 0 0 0 0 0 0 0 0 0 0 0 0 0 0 0 0.08 0"/>
<feBlend mode="normal" in2="BackgroundImageFix" result="effect1_dropShadow_16_181"/>
<feBlend mode="normal" in="SourceGraphic" in2="effect1_dropShadow_16_181" result="shape"/>
</filter>
<linearGradient id="paint0_linear_16_181" x1="37.3077" y1="26.4201" x2="78.563" y2="29.9723" gradientUnits="userSpaceOnUse">
<stop stop-color="#0166A0"/>
<stop offset="1" stop-color="#33B4FF"/>
</linearGradient>
</defs>
</svg>
