<svg width="123" height="126" viewBox="0 0 123 126" fill="none" xmlns="http://www.w3.org/2000/svg">
<g filter="url(#filter0_d_16_183)">
<rect x="17" width="75" height="75" rx="12" fill="white"/>
</g>
<path d="M54.7528 52.0208C53.9663 51.9639 53.264 51.309 52.646 50.0562C52.0281 48.8035 51.5224 47.1236 51.1292 45.0167C52.309 45.1306 53.5168 45.1875 54.7528 45.1875C55.9887 45.1875 57.1966 45.1306 58.3764 45.0167C57.9831 47.1236 57.4775 48.8035 56.8595 50.0562C56.2415 51.309 55.5393 51.9639 54.7528 52.0208ZM37.0562 37.5C37.1685 42.6819 38.882 46.9243 42.1966 50.2271C45.455 53.5868 49.6404 55.3236 54.7528 55.4375C59.8651 55.3236 64.0505 53.5868 67.309 50.2271C70.6236 46.9243 72.3371 42.6819 72.4494 37.5C72.3371 32.3181 70.6236 28.0757 67.309 24.7729C64.0505 21.4132 59.8651 19.6764 54.7528 19.5625C49.6404 19.6764 45.455 21.4132 42.1966 24.7729C38.882 28.0757 37.1685 32.3181 37.0562 37.5ZM40.4269 37.5C40.4831 36.7028 41.1292 35.991 42.3651 35.3646C43.6011 34.7382 45.2584 34.2257 47.3371 33.8271C47.2247 35.0229 47.1685 36.2472 47.1685 37.5C47.1685 38.7528 47.2247 39.9771 47.3371 41.1729C45.2584 40.7743 43.6011 40.2618 42.3651 39.6354C41.1292 39.009 40.4831 38.2972 40.4269 37.5ZM41.1011 42.0271C42.8988 43.166 45.146 43.9917 47.8427 44.5042C48.3483 47.2375 49.1629 49.5153 50.2865 51.3375C48.0955 50.5972 46.1854 49.4299 44.5562 47.8354C42.9831 46.184 41.8314 44.2479 41.1011 42.0271ZM41.1011 32.9729C41.8314 30.7521 42.9831 28.816 44.5562 27.1646C46.1854 25.5701 48.0955 24.4028 50.2865 23.6625C49.1629 25.4847 48.3483 27.7625 47.8427 30.4958C45.146 31.0083 42.8988 31.834 41.1011 32.9729ZM50.5393 37.5C50.5393 36.0194 50.5955 34.6528 50.7078 33.4C52 33.2861 53.3483 33.2292 54.7528 33.2292C56.2135 33.2292 57.5618 33.2861 58.7977 33.4C58.9101 34.6528 58.9663 36.0194 58.9663 37.5C58.9663 38.9236 58.9101 40.2903 58.7977 41.6C57.5618 41.7139 56.2135 41.7708 54.7528 41.7708C53.3483 41.7708 52 41.7139 50.7078 41.6C50.5955 40.2903 50.5393 38.9236 50.5393 37.5ZM51.1292 29.9833C51.5224 27.8764 52.0281 26.1965 52.646 24.9437C53.264 23.691 53.9663 23.0361 54.7528 22.9792C55.5393 23.0361 56.2415 23.691 56.8595 24.9437C57.4775 26.1965 57.9831 27.8764 58.3764 29.9833C57.1966 29.8694 55.9887 29.8125 54.7528 29.8125C53.5168 29.8125 52.309 29.8694 51.1292 29.9833ZM59.2191 51.3375C60.3427 49.5153 61.1573 47.2375 61.6629 44.5042C64.3595 43.9917 66.6067 43.166 68.4045 42.0271C67.6741 44.2479 66.5224 46.184 64.9494 47.8354C63.3202 49.4299 61.4101 50.5972 59.2191 51.3375ZM59.2191 23.6625C61.4101 24.4028 63.3202 25.5701 64.9494 27.1646C66.5224 28.816 67.6741 30.7521 68.4045 32.9729C66.6067 31.834 64.3595 31.0083 61.6629 30.4958C61.1573 27.7625 60.3427 25.4847 59.2191 23.6625ZM62.1685 41.1729C62.2809 39.9771 62.3371 38.7528 62.3371 37.5C62.3371 36.2472 62.2809 35.0229 62.1685 33.8271C64.2472 34.2257 65.9045 34.7382 67.1404 35.3646C68.3764 35.991 69.0224 36.7028 69.0786 37.5C69.0224 38.2972 68.3764 39.009 67.1404 39.6354C65.9045 40.2618 64.2472 40.7743 62.1685 41.1729Z" fill="url(#paint0_linear_16_183)"/>
<defs>
<filter id="filter0_d_16_183" x="0" y="0" width="123" height="126" filterUnits="userSpaceOnUse" color-interpolation-filters="sRGB">
<feFlood flood-opacity="0" result="BackgroundImageFix"/>
<feColorMatrix in="SourceAlpha" type="matrix" values="0 0 0 0 0 0 0 0 0 0 0 0 0 0 0 0 0 0 127 0" result="hardAlpha"/>
<feOffset dx="7" dy="27"/>
<feGaussianBlur stdDeviation="12"/>
<feComposite in2="hardAlpha" operator="out"/>
<feColorMatrix type="matrix" values="0 0 0 0 0 0 0 0 0 0 0 0 0 0 0 0 0 0 0.08 0"/>
<feBlend mode="normal" in2="BackgroundImageFix" result="effect1_dropShadow_16_183"/>
<feBlend mode="normal" in="SourceGraphic" in2="effect1_dropShadow_16_183" result="shape"/>
</filter>
<linearGradient id="paint0_linear_16_183" x1="38.4174" y1="26.6628" x2="76.516" y2="29.8991" gradientUnits="userSpaceOnUse">
<stop stop-color="#0166A0"/>
<stop offset="1" stop-color="#33B4FF"/>
</linearGradient>
</defs>
</svg>
